<svg width="52" height="44" viewBox="0 0 52 44" fill="none" xmlns="http://www.w3.org/2000/svg">
<g id="Frame 1">
<path id="triangle" d="M26 0L50 41.44L48.8159 39.3954L48.0102 39.0962L47.0097 38.6973L45.409 38.1986L43.408 37.6002L40.8068 37.0018L38.4057 36.6028L36.4048 36.3036L34.2038 36.1042L31.6026 35.9047L28.101 35.7052H26H22.9986L20.3974 35.9047L17.1959 36.1042L14.0945 36.5031L11.9935 36.902L8.99214 37.5005L6.39093 38.1986L4.69015 38.797L3.18945 39.3862L2 41.44L26 0Z" fill="#FFF500"/>
<g id="abla" filter="url(#filter0_ii_3_8)">
<path d="M7.71875 31.2129L3.85156 43H0.736328L6.01953 28.7812H8.00195L7.71875 31.2129ZM10.9316 43L7.05469 31.2129L6.74219 28.7812H8.74414L14.0566 43H10.9316ZM10.7559 37.707V40.002H3.24609V37.707H10.7559ZM20.9414 36.7598H17.2891L17.2695 34.748H20.3359C20.8763 34.748 21.319 34.6797 21.6641 34.543C22.0091 34.3997 22.2663 34.1947 22.4355 33.9277C22.6113 33.6543 22.6992 33.3223 22.6992 32.9316C22.6992 32.4889 22.6146 32.1309 22.4453 31.8574C22.2826 31.584 22.0254 31.3854 21.6738 31.2617C21.3288 31.138 20.8828 31.0762 20.3359 31.0762H18.3047V43H15.375V28.7812H20.3359C21.1628 28.7812 21.9017 28.8594 22.5527 29.0156C23.2103 29.1719 23.7669 29.4095 24.2227 29.7285C24.6784 30.0475 25.0267 30.4512 25.2676 30.9395C25.5085 31.4212 25.6289 31.9941 25.6289 32.6582C25.6289 33.2441 25.4954 33.7845 25.2285 34.2793C24.9681 34.7741 24.5547 35.1777 23.9883 35.4902C23.4284 35.8027 22.696 35.9753 21.791 36.0078L20.9414 36.7598ZM20.8145 43H16.4883L17.6309 40.7148H20.8145C21.3288 40.7148 21.7487 40.6335 22.0742 40.4707C22.3997 40.3014 22.6406 40.0736 22.7969 39.7871C22.9531 39.5007 23.0312 39.1719 23.0312 38.8008C23.0312 38.3841 22.9596 38.0228 22.8164 37.7168C22.6797 37.4108 22.4583 37.1764 22.1523 37.0137C21.8464 36.8444 21.4427 36.7598 20.9414 36.7598H18.1191L18.1387 34.748H21.6543L22.3281 35.5391C23.194 35.526 23.8906 35.679 24.418 35.998C24.9518 36.3105 25.3392 36.7174 25.5801 37.2188C25.8275 37.7201 25.9512 38.2572 25.9512 38.8301C25.9512 39.7415 25.7526 40.5098 25.3555 41.1348C24.9583 41.7533 24.3757 42.2188 23.6074 42.5312C22.8457 42.8438 21.9147 43 20.8145 43ZM37.2891 40.7148V43H30.1309V40.7148H37.2891ZM31.0781 28.7812V43H28.1484V28.7812H31.0781ZM44.9453 31.2129L41.0781 43H37.9629L43.2461 28.7812H45.2285L44.9453 31.2129ZM48.1582 43L44.2812 31.2129L43.9688 28.7812H45.9707L51.2832 43H48.1582ZM47.9824 37.707V40.002H40.4727V37.707H47.9824Z" fill="#71706E"/>
</g>
</g>
<defs>
<filter id="filter0_ii_3_8" x="0.536328" y="28.5812" width="50.9469" height="14.8188" filterUnits="userSpaceOnUse" color-interpolation-filters="sRGB">
<feFlood flood-opacity="0" result="BackgroundImageFix"/>
<feBlend mode="normal" in="SourceGraphic" in2="BackgroundImageFix" result="shape"/>
<feColorMatrix in="SourceAlpha" type="matrix" values="0 0 0 0 0 0 0 0 0 0 0 0 0 0 0 0 0 0 127 0" result="hardAlpha"/>
<feOffset dx="0.2" dy="0.4"/>
<feGaussianBlur stdDeviation="0.2"/>
<feComposite in2="hardAlpha" operator="arithmetic" k2="-1" k3="1"/>
<feColorMatrix type="matrix" values="0 0 0 0 0.898039 0 0 0 0 0.898039 0 0 0 0 0.898039 0 0 0 0.5 0"/>
<feBlend mode="normal" in2="shape" result="effect1_innerShadow_3_8"/>
<feColorMatrix in="SourceAlpha" type="matrix" values="0 0 0 0 0 0 0 0 0 0 0 0 0 0 0 0 0 0 127 0" result="hardAlpha"/>
<feOffset dx="-0.2" dy="-0.2"/>
<feGaussianBlur stdDeviation="0.1"/>
<feComposite in2="hardAlpha" operator="arithmetic" k2="-1" k3="1"/>
<feColorMatrix type="matrix" values="0 0 0 0 0 0 0 0 0 0 0 0 0 0 0 0 0 0 0.8 0"/>
<feBlend mode="normal" in2="effect1_innerShadow_3_8" result="effect2_innerShadow_3_8"/>
</filter>
</defs>
</svg>
